# xmcd
#
# Track frame offsets: 
#        150
#        11478
#        23063
#        33800
#        45018
#        60396
#        71341
#        84942
#        96788
#        111295
#        124962
#        138877
#
# Disc length: 2067 seconds
#
# Revision: 0
# Processed by: cddbd v1.5.2PL0 Copyright (c) Steve Scherf et al.
# Submitted via: ExactAudioCopy v0.99pb5
#
DISCID=8508110c
DTITLE=Heikki Kuula - Blacksuami
DYEAR=2010
DGENRE=Rap
TTITLE0=Sun nimi on Kuula
TTITLE1=Subutexcowboy
TTITLE2=Kallio-herska
TTITLE3=Paskannan sieluusi
TTITLE4=Spuge
TTITLE5=270183-213H
TTITLE6=Sutenöörin blues
TTITLE7=Huoralta pääsi kyynel
TTITLE8=Kurita mua mutsi
TTITLE9=Luutarhassa
TTITLE10=Postikortteja reunalta
TTITLE11=Poistakaa makkaraa
EXTD=
EXTT0=
EXTT1=
EXTT2=
EXTT3=
EXTT4=
EXTT5=
EXTT6=
EXTT7=
EXTT8=
EXTT9=
EXTT10=
EXTT11=
PLAYORDER=
